PathFileType	4	(X/Y/Z)	C:/Users/opensim2020/Desktop/walking_exp_matlab/subject01_walking08_straight_01.trc	
DataRate	CameraRate	NumFrames	NumMarkers	Units	OrigDataRate	OrigDataStartFrame	OrigNumFrames	
100.00	100.00	4	43	mm	100.00	871	377	
Frame#	Time	LFHD			RFHD			LBHD			RBHD			C7			T10			CLAV			STRN			RBAK			LSHO			LUPA			LELB			LFRM			LWRA			LWRB			LFIN			RSHO			RUPA			RELB			RFRM			RWRA			RWRB			RFIN			LASI			RASI			LPSI			RPSI			LTHI			LKNE			LTIB			LANK			LHEE			LTOE			RTHI			RKNE			RTIB			RANK			RHEE			RTOE			*39			*40			*41			*42			
		X1	Y1	Z1	X2	Y2	Z2	X3	Y3	Z3	X4	Y4	Z4	X5	Y5	Z5	X6	Y6	Z6	X7	Y7	Z7	X8	Y8	Z8	X9	Y9	Z9	X10	Y10	Z10	X11	Y11	Z11	X12	Y12	Z12	X13	Y13	Z13	X14	Y14	Z14	X15	Y15	Z15	X16	Y16	Z16	X17	Y17	Z17	X18	Y18	Z18	X19	Y19	Z19	X20	Y20	Z20	X21	Y21	Z21	X22	Y22	Z22	X23	Y23	Z23	X24	Y24	Z24	X25	Y25	Z25	X26	Y26	Z26	X27	Y27	Z27	X28	Y28	Z28	X29	Y29	Z29	X30	Y30	Z30	X31	Y31	Z31	X32	Y32	Z32	X33	Y33	Z33	X34	Y34	Z34	X35	Y35	Z35	X36	Y36	Z36	X37	Y37	Z37	X38	Y38	Z38	X39	Y39	Z39	X40	Y40	Z40	X41	Y41	Z41	X42	Y42	Z42	X43	Y43	Z43	

142	1.410	-1079.57861	-531.86078	1675.98401	-966.30914	-522.73486	1685.74756	-1073.79565	-632.95569	1602.08435	-953.47791	-626.03162	1610.28442	-1029.04639	-634.36517	1428.31213	-1009.66711	-661.42786	1134.81543	-1022.53668	-488.70468	1364.97009	-1024.32324	-441.45602	1209.75049	-945.57196	-683.52783	1235.19141	-1184.82727	-544.70355	1386.65076	-1267.06824	-544.14282	1200.76440	-1266.02478	-531.24390	1047.35010	-1280.69775	-453.03842	960.02167	-1251.17712	-336.11444	888.99878	-1276.68970	-382.46005	860.34723	-1279.85657	-310.47009	816.14905	-871.93890	-553.01019	1392.37720	-767.75616	-607.80566	1192.75964	-767.65753	-607.45325	1067.67004	-739.98761	-583.06738	949.34979	-764.97809	-510.32492	829.34833	-724.30035	-552.05798	831.15387	-728.99438	-517.96051	752.55145	-1113.81921	-485.13693	928.35791	-896.46216	-478.23914	938.21332	-1052.63220	-669.70074	940.63940	-907.43256	-662.74860	945.15179	-1169.99817	-552.84454	597.69800	-1161.48145	-586.03094	465.57422	-1177.88489	-708.13885	319.58310	-1140.46924	-825.69293	127.41667	-1088.90295	-878.65265	121.17851	-1133.06213	-712.24426	30.47745	-830.21710	-482.88663	606.98297	-856.35034	-442.07196	454.69745	-843.36676	-465.68713	279.79196	-885.95197	-459.79355	74.24578	-937.08948	-505.48654	33.85649	-882.94983	-318.45401	38.19991	-989.15698	-543.18060	1714.41687	-3102.66821	1972.86951	1024.07593	-3138.73291	2013.04419	1022.11108			 
143	1.420	-1077.07764	-526.25397	1676.65613	-963.83722	-516.90259	1686.61670	-1071.05579	-627.33344	1602.79492	-950.71320	-620.14410	1611.12732	-1026.33069	-628.46838	1428.99316	-1007.02618	-655.17981	1135.31470	-1020.09955	-482.81519	1365.84351	-1021.52747	-435.28882	1210.65320	-942.92554	-677.53381	1235.67505	-1182.33728	-538.78223	1387.43958	-1264.26941	-538.64148	1201.36023	-1263.56433	-526.57037	1048.07813	-1278.34216	-449.38751	959.93024	-1249.05115	-333.34872	887.44348	-1274.59656	-379.95932	859.38495	-1277.78833	-308.52267	814.32654	-869.14929	-546.93817	1393.18982	-764.84064	-601.36005	1193.23279	-764.92615	-600.79785	1068.10229	-737.51941	-575.80157	949.80743	-763.04102	-502.71274	830.10968	-722.25543	-544.51392	831.77417	-727.21521	-510.03558	753.31085	-1111.05310	-478.67059	929.04932	-893.91235	-472.07806	938.59625	-1050.68420	-663.41077	941.19330	-905.10498	-658.36804	946.77362	-1168.07605	-543.03955	597.86920	-1160.20593	-575.01868	465.70300	-1177.06445	-699.82349	322.19086	-1140.49451	-820.84711	132.18842	-1088.60742	-873.35675	127.49567	-1132.91675	-711.56366	30.72963	-828.36908	-479.25433	607.17438	-854.72833	-439.53967	454.38882	-842.68079	-464.68933	279.57355	-885.94543	-459.75925	74.20936	-937.20929	-504.53210	33.49886	-882.93219	-318.24933	38.01180	-986.54431	-537.29706	1715.22522	-3102.59961	1972.92773	1023.98425	-3138.39868	2013.18555	1021.62921			 
144	1.430	-1074.58984	-520.60675	1677.26587	-961.51611	-511.62750	1687.39014	-1068.36475	-621.67365	1603.43579	-948.05853	-614.34259	1611.90344	-1023.61768	-622.67334	1429.50122	-1004.46436	-649.04370	1135.84973	-1017.33289	-477.03107	1366.57227	-1018.80151	-429.14902	1211.48779	-940.32623	-671.53375	1236.14160	-1179.48181	-532.88190	1388.02771	-1261.49182	-533.31494	1201.94543	-1261.03650	-522.02155	1048.69812	-1276.02673	-445.89066	959.79755	-1246.93213	-330.75641	885.79016	-1272.53894	-377.72031	858.36749	-1275.50037	-306.68860	812.42029	-866.49860	-540.98694	1393.85156	-762.00739	-594.95288	1193.61157	-762.18726	-594.07965	1068.46863	-735.09332	-568.79858	950.08844	-761.06439	-494.91742	830.90466	-719.99146	-536.30792	832.30963	-725.39185	-501.85876	753.89868	-1108.41626	-472.33612	929.66840	-891.28430	-466.08426	938.88806	-1048.78125	-657.26306	941.60614	-903.27209	-652.07227	947.13959	-1166.22131	-532.96436	597.89832	-1158.98657	-563.60730	465.48853	-1176.29321	-691.04309	324.86823	-1140.17078	-815.41431	136.90625	-1088.20544	-867.51349	133.93892	-1132.54077	-711.33313	30.92882	-826.79132	-476.04077	607.20612	-853.18970	-437.13538	454.03452	-842.04187	-463.57343	279.35870	-885.90277	-459.16888	73.99709	-937.17261	-504.72058	33.43970	-882.94678	-318.07867	37.74448	-984.14996	-531.42877	1715.83118	-3102.61011	1972.92090	1024.03809	-3138.39502	2013.18982	1022.10742			 
145	1.440	-1072.17627	-515.06769	1677.83008	-959.02979	-505.51865	1687.92944	-1065.74854	-616.10706	1603.95032	-945.47583	-608.61255	1612.51855	-1020.94031	-616.92383	1429.98682	-1001.95905	-642.91284	1136.29285	-1014.33905	-471.25134	1367.18689	-1016.13721	-423.09827	1212.25220	-937.75903	-665.56494	1236.52783	-1176.83362	-527.09479	1388.66455	-1258.85706	-528.20789	1202.54700	-1258.41541	-517.57092	1049.28394	-1273.65979	-442.45709	959.64069	-1244.87964	-328.34238	884.09857	-1270.51550	-375.62207	857.31219	-1273.55139	-305.21292	810.44684	-863.92773	-535.32544	1394.35291	-759.29956	-588.45630	1193.92969	-759.44098	-587.35254	1068.82910	-732.62042	-561.25049	950.65564	-759.16040	-487.21146	831.60608	-717.83685	-528.17120	832.89001	-723.48267	-493.26901	754.57349	-1105.84326	-466.16895	930.26111	-888.81512	-460.27133	939.11328	-1046.83203	-651.25146	942.01251	-901.36810	-646.31805	947.61481	-1164.64526	-522.65973	597.90881	-1157.97217	-551.70294	465.38388	-1175.42554	-681.68481	327.59186	-1139.61780	-809.39545	141.74379	-1087.36206	-860.90216	140.64996	-1132.01709	-710.26581	31.05406	-825.16815	-472.10397	607.06793	-851.62927	-434.67523	453.68420	-841.42163	-462.42200	278.99966	-885.85553	-459.59042	73.89946	-937.17548	-504.51059	33.47179	-883.05389	-317.89047	37.62421	-981.79877	-525.66626	1716.70422	-3102.80688	1972.83679	1023.98560	-3138.35669	2013.20349	1022.17200			 
